# AST/ASF file generated using VICON BodyLanguage
# -----------------------------------------------
:version 1.10
:name VICON
:units
  mass 1.0
  length 0.45
  angle deg
:documentation
   .ast/.asf automatically generated from VICON data using
   VICON BodyBuilder and BodyLanguage model FoxedUp or BRILLIANT.MOD
:root
   order TX TY TZ RX RY RZ
   axis XYZ
   position 0 0 0  
   orientation 0 0 0 
:bonedata
  begin
     id 1 
     name lhipjoint
     direction 0.521452 -0.77106 0.36545 
     length 2.0933 
     axis 0 0 0  XYZ
  end
  begin
     id 2 
     name lfemur
     direction 0.34202 -0.939693 0  
     length 6.83441  
     axis 0 0 20  XYZ
    dof rx ry rz
    limits (-160.0 20.0)
           (-70.0 70.0)
           (-60.0 70.0)
  end
  begin
     id 3 
     name ltibia
     direction 0.34202 -0.939693 0   
     length 7.28749   
     axis 0 0 20   XYZ
    dof rx
    limits (-10.0 170.0)
  end
  begin
     id 4 
     name lfoot
     direction 0.100608 -0.276418 0.955757   
     length 1.52195   
     axis -90 7.62852e-016 20   XYZ
    dof rx rz
    limits (-45.0 90.0)
           (-70.0 20.0)
  end
  begin
     id 5 
     name ltoes
     direction 1.53558e-011 -4.21907e-011 1   
     length 0.770459   
     axis -90 7.62852e-016 20   XYZ
    dof rx
    limits (-90.0 20.0)
  end
  begin
     id 6 
     name rhipjoint
     direction -0.488071 -0.788702 0.373812   
     length 2.04648  
     axis 0 0 0  XYZ 
  end
  begin
     id 7 
     name rfemur
     direction -0.34202 -0.939693 0   
     length 6.92583   
     axis 0 0 -20   XYZ
    dof rx ry rz
    limits (-160.0 20.0)
           (-70.0 70.0)
           (-70.0 60.0)
  end
  begin
     id 8 
     name rtibia
     direction -0.34202 -0.939693 0   
     length 7.41043   
     axis 0 0 -20   XYZ
    dof rx
    limits (-10.0 170.0)
 end
 begin
     id 9 
     name rfoot
     direction -0.0784433 -0.215521 0.973343   
     length 1.67708  
     axis -90 -7.62852e-016 -20   XYZ
    dof rx rz
    limits (-45.0 90.0)
           (-20.0 70.0)
  end
  begin
     id 10 
     name rtoes
     direction -1.53551e-011 -4.21842e-011 1   
     length 0.849787   
     axis -90 -7.62852e-016 -20   XYZ
    dof rx
    limits (-90.0 20.0)
  end
  begin
     id 11 
     name lowerback
     direction -0.0122332 0.997575 -0.0685192   
     length 1.98724   
     axis 0 0 0   XYZ
    dof rx ry rz
    limits (-20.0 45.0)
           (-30.0 30.0)
           (-30.0 30.0)
  end
  begin
     id 12 
     name upperback
     direction 0.0182347 0.999724 -0.0148421   
     length 1.99029   
     axis 0 0 0   XYZ
    dof rx ry rz
    limits (-20.0 45.0)
           (-30.0 30.0)
           (-30.0 30.0)
  end
  begin
     id 13 
     name thorax
     direction 0.0242908 0.99956 0.0170184   
     length 1.99573   
     axis 0 0 0   XYZ
    dof rx ry rz
    limits (-20.0 45.0)
           (-30.0 30.0)
           (-30.0 30.0)
  end
  begin
     id 14 
     name lowerneck
     direction 0.0654488 0.985533 0.156338   
     length 1.4285   
     axis 0 0 0   XYZ
    dof rx ry rz
    limits (-20.0 45.0)
           (-30.0 30.0)
           (-30.0 30.0)
  end
  begin
     id 15 
     name upperneck
     direction -0.02953 0.998556 -0.0448842   
     length 1.44709   
     axis 0 0 0   XYZ
    dof rx ry rz
    limits (-20.0 45.0)
           (-30.0 30.0)
           (-30.0 30.0)
  end
  begin
     id 16
     name head
     direction -0.0155588 0.999386 -0.0314063  
     length 1.44689  
     axis 0 0 0   XYZ
    dof rx ry rz
    limits (-20.0 45.0)
           (-30.0 30.0)
           (-30.0 30.0)
  end
  begin
     id 17 
     name lclavicle
     direction 0.968229 0.236071 -0.0824755  
     length 3.60593  
     axis 0 0 0   XYZ
    dof ry rz
    limits (-20.0 10.0)
           (0.0 20.0)
  end
  begin
     id 18 
     name lhumerus
     direction 1 -4.48968e-011 7.8138e-029   
     length 5.06035   
     axis 180 -30 -90   XYZ
    dof rx ry rz
    limits (-60.0 90.0)
           (-90.0 90.0)
           (-90.0 90.0)
  end
  begin
     id 19
     name lradius
     direction 1 -4.48967e-011 9.02887e-028   
     length 3.1478   
     axis 180 -30 -90   XYZ
    dof rx
    limits (-10.0 170.0)
  end
  begin
     id 20
     name lwrist
     direction 1 -4.48961e-011 7.20928e-028   
     length 1.5739   
     axis -5.52449e-016 90 90   XYZ
    dof ry
    limits (-180.0 0.0)
 end
  begin
     id 21 
     name lhand
     direction 1 -4.48972e-011 1.44186e-027   
     length 0.606747   
     axis -9.20027e-016 90 90   XYZ
    dof rx rz
    limits (-90.0 90.0)
           (-45.0 45.0)
  end
  begin
     id 22 
     name lfingers
     direction 1 -4.48943e-011 2.88371e-027   
     length 0.489175   
     axis -1.84005e-015 90 90   XYZ
    dof rx
    limits (0.0 90.0)
  end
  begin
     id 23
     name lthumb
     direction 0.707107 -6.34917e-011 0.707107   
     length 0.70236   
     axis -90 45 2.85299e-015   XYZ
    dof rx rz
    limits (-45.0 45.0)
           (-45.0 45.0)
  end
  begin
     id 24 
     name rclavicle
     direction -0.978165 0.207816 0.0022268   
     length 3.35425  
     axis 0 0 0   XYZ 
    dof ry rz
    limits (-10.0 20.0)
           (-20.0 0.0)
  end
  begin
     id 25 
     name rhumerus
     direction -1 -4.48964e-011 -4.02159e-027  
     length 5.12273   
     axis 180 30 90   XYZ
    dof rx ry rz
    limits (-90.0 60.0)
           (-90.0 90.0)
           (-90.0 90.0)
  end
  begin
     id 26 
     name rradius
     direction -1 -4.48966e-011 1.62746e-027   
     length 3.422   
     axis 180 30 90   XYZ
    dof rx
    limits (-10.0 170.0)
  end
  begin
     id 27 
     name rwrist
     direction -1 -4.4896e-011 7.20928e-028   
     length 1.711   
     axis -5.52449e-016 -90 -90   XYZ
    dof ry
    limits (-180.0 0.0)
  end
  begin
     id 28
     name rhand
     direction -1 -4.48979e-011 1.44186e-027   
     length 0.704599   
     axis -9.20027e-016 -90 -90   XYZ
    dof rx rz
    limits (-90.0 90.0)
           (-45.0 45.0)
  end
  begin
     id 29
     name rfingers
     direction -1 -4.48962e-011 2.88371e-027   
     length 0.568066   
     axis -1.84005e-015 -90 -90   XYZ
    dof rx
    limits (0.0 90.0)
  end
  begin
     id 30
     name rthumb
     direction -0.707107 -6.34949e-011 0.707107   
     length 0.815633   
     axis -90 -45 -2.85299e-015   XYZ
    dof rx rz
    limits (-45.0 45.0)
           (-45.0 45.0)
  end
:hierarchy
  begin
    root lhipjoint rhipjoint lowerback
    lhipjoint lfemur
    lfemur ltibia
    ltibia lfoot
    lfoot ltoes
    rhipjoint rfemur
    rfemur rtibia
    rtibia rfoot
    rfoot rtoes
    lowerback upperback
    upperback thorax
    thorax lowerneck lclavicle rclavicle
    lowerneck upperneck
    upperneck head
    lclavicle lhumerus
    lhumerus lradius
    lradius lwrist
    lwrist lhand lthumb
    lhand lfingers
    rclavicle rhumerus
    rhumerus rradius
    rradius rwrist
    rwrist rhand rthumb
    rhand rfingers
  end

#!OML:ASF E:\id_vita\Project 1\Capture day 1\Session 1\Male1.ASF
:FULLY-SPECIFIED
:DEGREES
450
root 39.6625 13.7692 -0.110533 -26.8035 -82.594 70.9077
lowerback 26.0901 -6.30808 1.45329
upperback 10.6528 -8.48401 -2.38438
thorax -3.08582 -4.29094 -1.00771
lowerneck -13.627 2.11572 -4.31851
upperneck 40.5037 2.95191 -1.94521
head 17.0114 -0.138385 0.299075
rclavicle 2.38542e-014 -3.37934e-014
rhumerus 55.618 18.8402 -71.3654
rradius 26.9706
rwrist 33.8285
rhand -27.1043 32.1025
rfingers 7.12502
rthumb -0.520792 2.12337
lclavicle 2.38542e-014 -3.37934e-014
lhumerus 57.2761 -16.6831 31.9104
lradius 25.8716
lwrist -17.387
lhand -42.0425 86.8357
lfingers 7.12502
lthumb -14.9361 243.723
rfemur -28.3605 -7.54585 21.5191
rtibia 46.526
rfoot -40.7957 -22.3627
rtoes -21.962
lfemur -84.024 -7.45875 -22.494
ltibia 76.2135
lfoot -35.3017 9.15779
ltoes -10.3539
451
root 39.6278 13.7564 -0.103653 -29.3552 -82.9 73.7091
lowerback 25.8601 -6.14373 1.19941
upperback 10.5255 -8.32848 -2.31299
thorax -3.06958 -4.22234 -0.850816
lowerneck -13.6162 2.0608 -4.28885
upperneck 40.338 3.02317 -2.33234
head 16.9323 -0.149952 0.134646
rclavicle -3.18055e-014 3.97569e-016
rhumerus 55.6117 19.0396 -71.088
rradius 26.9359
rwrist 33.8467
rhand -26.9851 31.9854
rfingers 7.12502
rthumb -0.405649 2.00608
lclavicle -3.18055e-014 3.97569e-016
lhumerus 57.1216 -16.8023 31.9488
lradius 25.9392
lwrist -17.1861
lhand -42.242 86.5194
lfingers 7.12502
lthumb -15.1283 244.053
rfemur -28.4668 -7.29952 21.3605
rtibia 46.5221
rfoot -40.8102 -21.9429
rtoes -21.5033
lfemur -84.1847 -7.21145 -22.5017
ltibia 76.4139
lfoot -35.8029 9.18262
ltoes -6.69221
452
root 39.5875 13.75 -0.0997279 -32.3952 -83.2211 76.6979
lowerback 25.9463 -5.8825 0.920824
upperback 10.4718 -8.06005 -2.19985
thorax -3.11007 -4.10313 -0.641608
lowerneck -13.5978 1.9146 -4.2502
upperneck 40.1802 2.96902 -2.74998
head 16.8589 -0.21266 -0.0654108
rclavicle 2.38542e-014 -5.00937e-014
rhumerus 55.6793 18.9348 -70.7055
rradius 26.8798
rwrist 34.5989
rhand -26.9316 32.296
rfingers 7.12502
rthumb -0.354071 2.31657
lclavicle 2.38542e-014 -5.00937e-014
lhumerus 57.2469 -17.17 31.6198
lradius 26.016
lwrist -16.4617
lhand -42.8767 86.3683
lfingers 7.12502
lthumb -15.7397 244.252
rfemur -28.3759 -7.16944 21.2318
rtibia 46.5503
rfoot -40.457 -22.0607
rtoes -21.9743
lfemur -83.9365 -6.92924 -22.5154
ltibia 76.5671
lfoot -35.7116 9.81761
ltoes -10.4464
453
root 39.544 13.7528 -0.101136 -34.6229 -83.5107 79.0969
lowerback 25.7654 -5.64361 0.701324
upperback 10.3488 -7.79411 -2.01955
thorax -3.10115 -3.98212 -0.412632
lowerneck -13.5335 1.79745 -4.34428
upperneck 40.1012 2.91692 -2.99805
head 16.809 -0.275825 -0.166811
rclavicle 4.77083e-014 1.47101e-014
rhumerus 55.7439 19.0004 -70.0097
rradius 26.9488
rwrist 34.7966
rhand -26.7121 32.2553
rfingers 7.12502
rthumb -0.142062 2.27559
lclavicle 4.77083e-014 1.47101e-014
lhumerus 57.1487 -16.9922 32.4406
lradius 25.9238
lwrist -17.1214
lhand -42.5216 86.89
lfingers 7.12502
lthumb -15.3976 243.703
rfemur -28.8024 -7.04084 21.2525
rtibia 46.5483
rfoot -39.4486 -22.7783
rtoes -23.6279
lfemur -83.8942 -6.65564 -22.4309
ltibia 76.6729
lfoot -35.9869 10.2436
ltoes -8.7339
454
root 39.5013 13.7529 -0.097072 -36.0062 -83.6693 80.3721
lowerback 25.9547 -5.49045 0.55465
upperback 10.2519 -7.61604 -1.78241
thorax -3.24341 -3.90176 -0.104568
lowerneck -13.3763 1.70417 -4.57504
upperneck 39.9464 2.9025 -3.16206
head 16.6896 -0.329371 -0.198001
rclavicle 4.29375e-014 2.06736e-014
rhumerus 55.8158 19.047 -69.4141
rradius 27.1106
rwrist 34.1197
rhand -26.9169 32.4173
rfingers 7.12502
rthumb -0.339786 2.43784
lclavicle 4.29375e-014 2.06736e-014
lhumerus 57.0386 -16.8658 33.2306
lradius 25.8612
lwrist -17.386
lhand -42.4356 86.7582
lfingers 7.12502
lthumb -15.3148 243.829
rfemur -28.4157 -7.15079 21.2594
rtibia 46.5659
rfoot -39.9437 -21.807
rtoes -22.734
lfemur -83.5797 -6.5928 -22.3253
ltibia 76.7866
lfoot -36.0752 10.3294
ltoes -10.8451
455
root 39.4708 13.7381 -0.0844271 -37.1692 -83.625 81.4205
lowerback 26.0605 -5.46852 0.471195
upperback 10.2356 -7.59795 -1.62795
thorax -3.2792 -3.89756 0.112076
lowerneck -13.2743 1.63875 -4.62561
upperneck 39.6768 2.9726 -3.54668
head 16.5335 -0.346496 -0.341317
rclavicle 6.36111e-015 -4.29375e-014
rhumerus 56.2146 19.2667 -68.6166
rradius 27.0417
rwrist 33.3998
rhand -26.8456 32.2961
rfingers 7.12502
rthumb -0.270966 2.31649
lclavicle 6.36111e-015 -4.29375e-014
lhumerus 57.0285 -16.7801 33.493
lradius 25.7964
lwrist -17.2631
lhand -42.6058 86.5299
lfingers 7.12502
lthumb -15.4787 244.07
rfemur -27.7906 -7.30015 21.0244
rtibia 46.4808
rfoot -40.5467 -20.6837
rtoes -21.3071
lfemur -83.3833 -6.74206 -22.3325
ltibia 76.937
lfoot -36.3765 10.1815
ltoes -6.72036
456
root 39.4387 13.719 -0.0723113 -41.637 -83.9244 86.0041
lowerback 25.8235 -5.24089 0.230623
upperback 10.2175 -7.36746 -1.54432
thorax -3.14535 -3.79703 0.248511
lowerneck -13.2883 1.57074 -4.59936
upperneck 39.4677 3.02913 -3.94534
head 16.4419 -0.363159 -0.506963
rclavicle 1.59028e-014 1.98785e-014
rhumerus 56.5685 19.4939 -67.9542
rradius 26.9485
rwrist 32.9844
rhand -27.1368 32.0197
rfingers 7.12502
rthumb -0.552237 2.04065
lclavicle 1.59028e-014 1.98785e-014
lhumerus 56.9309 -16.5546 34.1205
lradius 25.6701
lwrist -17.5663
lhand -42.6952 86.5144
lfingers 7.12502
lthumb -15.5648 244.092
rfemur -27.7329 -7.05365 20.8063
rtibia 46.4271
rfoot -40.5239 -20.0413
rtoes -21.0926
lfemur -83.3385 -6.3732 -22.5809
ltibia 77.1042
lfoot -35.7592 12.3387
ltoes -13.6215
457
root 39.4057 13.7295 -0.0740513 -45.3585 -84.2124 89.7136
lowerback 25.9284 -5.00282 -0.0124977
upperback 10.1585 -7.11895 -1.41856
thorax -3.21521 -3.68531 0.461651
lowerneck -13.0385 1.46389 -4.87502
upperneck 38.9016 2.92884 -3.82626
head 16.0743 -0.399523 -0.406941
rclavicle -4.13472e-014 -5.92378e-014
rhumerus 56.4954 19.4703 -67.8728
rradius 27.1245
rwrist 33.0652
rhand -27.1458 32.0843
rfingers 7.12502
rthumb -0.560864 2.10525
lclavicle -4.13472e-014 -5.92378e-014
lhumerus 56.873 -16.4881 34.5571
lradius 25.6807
lwrist -17.7011
lhand -42.8003 86.4342
lfingers 7.12502
lthumb -15.666 244.18
rfemur -27.5788 -6.75985 20.7581
rtibia 46.2613
rfoot -40.0278 -20.2158
rtoes -22.1444
lfemur -83.291 -6.04152 -22.1992
ltibia 77.3512
lfoot -36.7441 9.70808
ltoes -5.34862
458
root 39.3743 13.7274 -0.0755078 -48.7441 -84.5277 93.1681
lowerback 25.9486 -4.7888 -0.173682
upperback 10.0608 -6.87571 -1.26881
thorax -3.29619 -3.57269 0.651725
lowerneck -13.1151 1.40465 -4.89633
upperneck 38.8847 2.94617 -4.07511
head 16.0947 -0.428894 -0.508403
rclavicle 1.22451e-013 3.53837e-014
rhumerus 56.1396 19.3129 -68.1184
rradius 27.3989
rwrist 33.8532
rhand -27.1148 32.2264
rfingers 7.12502
rthumb -0.530952 2.24736
lclavicle 1.22451e-013 3.53837e-014
lhumerus 56.8541 -16.6833 34.5109
lradius 25.8154
lwrist -17.4961
lhand -42.7845 85.8644
lfingers 7.12502
lthumb -15.6508 244.749
rfemur -27.6013 -6.47146 20.8349
rtibia 46.1346
rfoot -39.3864 -20.8398
rtoes -23.3647
lfemur -83.2924 -5.65562 -22.0005
ltibia 77.5918
lfoot -37.1864 9.00054
ltoes -3.43774
459
root 39.3271 13.7305 -0.0680681 -53.7421 -84.802 98.0437
lowerback 26.082 -4.60976 -0.334686
upperback 10.0324 -6.68925 -1.18238
thorax -3.36397 -3.48947 0.795227
lowerneck -13.1456 1.3844 -4.71616
upperneck 38.626 3.08546 -4.63941
head 15.9926 -0.410855 -0.755753
rclavicle 6.52014e-014 -9.93923e-015
rhumerus 56.5427 19.6053 -67.3466
rradius 27.108
rwrist 33.4766
rhand -27.1948 32.2952
rfingers 7.12502
rthumb -0.608231 2.31628
lclavicle 6.52014e-014 -9.93923e-015
lhumerus 56.7448 -16.744 34.5095
lradius 25.8213
lwrist -17.4386
lhand -42.543 85.663
lfingers 7.12502
lthumb -15.4182 244.932
rfemur -27.5577 -6.30822 20.8038
rtibia 45.9436
rfoot -38.6522 -21.3458
rtoes -24.6596
lfemur -82.8999 -5.28458 -21.9907
ltibia 77.7795
lfoot -37.4102 9.45687
ltoes -3.99329
460
root 39.2923 13.7199 -0.0600442 -57.5926 -84.9048 101.887
lowerback 26.0523 -4.48566 -0.441151
upperback 9.98667 -6.55406 -1.10409
thorax -3.38092 -3.42825 0.901099
lowerneck -13.1234 1.34641 -4.63366
upperneck 38.4196 3.11405 -4.9197
head 15.8929 -0.415809 -0.880899
rclavicle -7.95139e-015 -4.6118e-014
rhumerus 56.8146 19.7984 -66.7597
rradius 27.0915
rwrist 32.8677
rhand -26.9903 31.9891
rfingers 7.12502
rthumb -0.410689 2.00973
lclavicle -7.95139e-015 -4.6118e-014
lhumerus 56.7549 -16.7202 34.5853
lradius 25.6873
lwrist -17.4361
lhand -42.265 86.574
lfingers 7.12502
lthumb -15.1505 244.001
rfemur -27.321 -6.24075 20.6955
rtibia 45.7502
rfoot -38.3462 -21.6198
rtoes -25.6412
lfemur -82.756 -5.08006 -22.0316
ltibia 77.9997
lfoot -37.6506 9.65633
ltoes -3.88981
461
root 39.2576 13.71 -0.0571079 -63.1445 -85.0965 107.657
lowerback 25.6979 -4.28197 -0.56537
upperback 9.91675 -6.31712 -1.02262
thorax -3.26973 -3.3191 0.9671
lowerneck -12.9948 1.31923 -4.63078
upperneck 38.3176 3.15601 -5.20001
head 15.8214 -0.430237 -0.992489
rclavicle -4.92986e-014 -4.45278e-014
rhumerus 56.9434 19.8116 -66.6619
rradius 27.0892
rwrist 32.8192
rhand -26.9866 32.0565
rfingers 7.12502
rthumb -0.407191 2.07713
lclavicle -4.92986e-014 -4.45278e-014
lhumerus 56.7594 -16.7272 34.6331
lradius 25.6249
lwrist -17.3344
lhand -42.0088 87.5676
lfingers 7.12502
lthumb -14.9036 242.989
rfemur -27.3625 -5.92954 20.6627
rtibia 45.5364
rfoot -37.9292 -21.9
rtoes -26.3935
lfemur -82.8698 -4.64671 -22.0262
ltibia 78.2127
lfoot -38.1767 9.6036
ltoes -2.9344
462
root 39.2259 13.7015 -0.0553124 -67.5653 -85.174 111.984
lowerback 25.7903 -4.13758 -0.693829
upperback 9.88879 -6.16438 -0.937618
thorax -3.32428 -3.2505 1.09728
lowerneck -13.1406 1.29065 -4.4219
upperneck 38.4052 3.26187 -5.7771
head 15.9296 -0.440651 -1.26714
rclavicle -3.33958e-014 -2.78299e-014
rhumerus 57.169 19.7811 -66.7016
rradius 26.8541
rwrist 33.1818
rhand -27.1056 32.3763
rfingers 7.12502
rthumb -0.522066 2.3972
lclavicle -3.33958e-014 -2.78299e-014
lhumerus 56.7157 -16.7947 34.5583
lradius 25.6413
lwrist -17.0666
lhand -42.119 85.4813
lfingers 7.12502
lthumb -15.0098 245.083
rfemur -26.6203 -5.66376 20.5235
rtibia 45.2931
rfoot -39.0228 -20.0494
rtoes -23.8018
lfemur -82.6424 -4.33423 -22.0986
ltibia 78.4121
lfoot -38.3014 10.0591
ltoes -4.06938
463
root 39.1922 13.6966 -0.0496157 -71.4774 -85.1059 115.831
lowerback 25.8626 -4.08966 -0.831135
upperback 9.85307 -6.13672 -0.907579
thorax -3.38162 -3.24019 1.20653
lowerneck -13.509 1.28631 -4.53619
upperneck 38.7227 3.34856 -5.89243
head 16.1927 -0.458626 -1.29843
rclavicle 1.17681e-013 3.73715e-014
rhumerus 57.5619 20.1965 -66.1256
rradius 26.5393
rwrist 32.4872
rhand -26.8141 31.8586
rfingers 7.12502
rthumb -0.240579 1.87901
lclavicle 1.17681e-013 3.73715e-014
lhumerus 56.5638 -16.7129 34.6763
lradius 25.5364
lwrist -16.9653
lhand -42.5044 85.0353
lfingers 7.12502
lthumb -15.3811 245.557
rfemur -26.2559 -5.53325 20.3204
rtibia 45.0578
rfoot -39.1241 -19.4379
rtoes -23.0844
lfemur -82.3905 -4.17906 -22.2243
ltibia 78.5594
lfoot -38.4134 10.3734
ltoes -4.91916
464
root 39.1604 13.6939 -0.041811 -74.4981 -84.9929 118.856
lowerback 25.8463 -4.05 -0.911143
upperback 9.83863 -6.10652 -0.894655
thorax -3.38102 -3.22816 1.25637
lowerneck -13.7033 1.22849 -4.79343
upperneck 38.7423 3.29375 -5.69442
head 16.2406 -0.495664 -1.17663
rclavicle 1.06549e-013 7.11649e-014
rhumerus 57.8792 20.2753 -65.9374
rradius 26.2937
rwrist 32.4013
rhand -26.7588 31.9657
rfingers 7.12502
rthumb -0.187097 1.98604
lclavicle 1.06549e-013 7.11649e-014
lhumerus 56.624 -16.6564 34.5955
lradius 25.412
lwrist -16.6557
lhand -42.8365 85.0453
lfingers 7.12502
lthumb -15.7009 245.572
rfemur -26.0888 -5.47265 20.1148
rtibia 44.8215
rfoot -38.9056 -19.592
rtoes -23.5886
lfemur -82.2214 -4.07306 -22.3842
ltibia 78.6674
lfoot -38.4521 10.665
ltoes -5.02711
